<svg width="16" height="16" xmlns="http://www.w3.org/2000/svg">
 <g>
  <title>Layer 1</title>
  <g id="svg_4">
   <g id="svg_1">
    <path d="m459.99989,27.99999l3.14063,0.29689l2.92187,0.89064l2.70313,1.48437l2.48437,2.0781l2.07813,2.48439l1.48437,2.70313l0.89063,2.92187l0.29687,3.14061l0,176l176,0l3.14063,0.29688l2.92187,0.89062l2.70313,1.48438l2.48437,2.07812l2.07813,2.48439l1.48437,2.70313l0.89063,2.92187l0.29687,3.14061l-0.29687,3.14063l-0.89063,2.92187l-1.48437,2.70313l-2.07813,2.48437l-2.48437,2.07814l-2.70313,1.48436l-2.92187,0.89063l-3.14063,0.29687l-176,0l0,176l-0.29687,3.14063l-0.89063,2.92187l-1.48437,2.70313l-2.07813,2.48437l-2.48437,2.07813l-2.70313,1.48437l-2.92187,0.89063l-3.14063,0.29687l-3.14062,-0.29687l-2.92188,-0.89063l-2.70312,-1.48437l-2.48438,-2.07813l-2.07812,-2.48437l-1.48438,-2.70313l-0.89062,-2.92187l-0.29688,-3.14063l0,-176l-176,0l-3.14062,-0.29687l-2.92188,-0.89063l-2.70312,-1.48436l-2.48438,-2.07814l-2.07812,-2.48437l-1.48438,-2.70313l-0.89062,-2.92187l-0.29688,-3.14063l0.29688,-3.14061l0.89062,-2.92187l1.48438,-2.70313l2.07812,-2.48439l2.48438,-2.07812l2.70312,-1.48438l2.92188,-0.89062l3.14062,-0.29688l176,0l0,-176l0.29688,-3.14061l0.89062,-2.92187l1.48438,-2.70313l2.07812,-2.48439l2.48438,-2.0781l2.70312,-1.48437l2.92188,-0.89064l3.14062,-0.29689z" fill="#ffffff" transform="translate(-0.5 -0.5) scale(0.0357143 0.0357143)" id="path1"/>
   </g>
   <g id="svg_3">
    <path d="m12.0001,27.99999l3.14063,0.29689l2.92187,0.89064l2.70313,1.48437l2.48437,2.0781l2.07813,2.48439l1.48437,2.70313l0.89063,2.92187l0.29687,3.14061l0,176l176,0l3.14063,0.29688l2.92187,0.89062l2.70313,1.48438l2.48437,2.07812l2.07813,2.48439l1.48437,2.70313l0.89063,2.92187l0.29687,3.14061l-0.29687,3.14063l-0.89063,2.92187l-1.48437,2.70313l-2.07813,2.48437l-2.48437,2.07814l-2.70313,1.48436l-2.92187,0.89063l-3.14063,0.29687l-176,0l0,176l-0.29687,3.14063l-0.89063,2.92187l-1.48437,2.70313l-2.07813,2.48437l-2.48437,2.07813l-2.70313,1.48437l-2.92187,0.89063l-3.14063,0.29687l-3.14062,-0.29687l-2.92188,-0.89063l-2.70312,-1.48437l-2.48438,-2.07813l-2.07812,-2.48437l-1.48438,-2.70313l-0.89062,-2.92187l-0.29688,-3.14063l0,-176l-176,0l-3.14062,-0.29687l-2.92188,-0.89063l-2.70312,-1.48436l-2.48438,-2.07814l-2.07812,-2.48437l-1.48438,-2.70313l-0.89062,-2.92187l-0.29688,-3.14063l0.29688,-3.14061l0.89062,-2.92187l1.48438,-2.70313l2.07812,-2.48439l2.48438,-2.07812l2.70312,-1.48438l2.92188,-0.89062l3.14062,-0.29688l176,0l0,-176l0.29688,-3.14061l0.89062,-2.92187l1.48438,-2.70313l2.07812,-2.48439l2.48438,-2.0781l2.70312,-1.48437l2.92188,-0.89064l3.14062,-0.29689z" fill="#ffffff" transform="translate(-0.5 -0.5) scale(0.0357143 0.0357143)" id="svg_2"/>
   </g>
  </g>
 </g>

</svg>